<svg xmlns="http://www.w3.org/2000/svg" width="97.891" height="109.93" viewBox="0 0 97.891 109.93"><defs><style>.a{fill:#fff;}.b{fill:#e60019;}</style></defs><g transform="translate(-40.694 -16.181)"><path class="a" d="M113.944,153.8a1.534,1.534,0,0,1-.278-.026c-2.49-.46-6.833-2.5-9.8-4.1a79.806,79.806,0,0,1-17.041-12.5,71.006,71.006,0,0,1-16.273-23.223A70.22,70.22,0,0,1,65,86.1V64.655a1.545,1.545,0,0,1,1.111-1.477,245.284,245.284,0,0,0,47.114-19.133,1.537,1.537,0,0,1,1.445,0,248.185,248.185,0,0,0,47.113,19.128,1.545,1.545,0,0,1,1.108,1.477V86.1a70.21,70.21,0,0,1-5.558,27.841,71,71,0,0,1-16.273,23.223,79.825,79.825,0,0,1-17.041,12.5c-2.965,1.605-7.309,3.642-9.8,4.1A1.529,1.529,0,0,1,113.944,153.8Zm-.472-106.4a248.566,248.566,0,0,1-44.665,18.2l-.732.218V86.1c0,19.093,7.027,35.527,20.886,48.847a76.686,76.686,0,0,0,16.374,12.013,46.372,46.372,0,0,0,8.354,3.662l.256.066.256-.066a46.438,46.438,0,0,0,8.354-3.662,76.7,76.7,0,0,0,16.373-12.013c13.859-13.32,20.886-29.754,20.886-48.847V65.8l-.731-.219a251.467,251.467,0,0,1-44.658-18.19l-.477-.25Z" transform="translate(-24.305 -27.684)"/><path class="a" d="M161.019,361.947a1.521,1.521,0,0,1-1.133-.5l-.035-.037a1.537,1.537,0,0,1,2.257-2.088l.063.068a1.538,1.538,0,0,1-1.152,2.555Z" transform="translate(-94.547 -261.938)"/><path class="a" d="M190.535,389.11a1.531,1.531,0,0,1-.818-.237,70.835,70.835,0,0,1-9.378-7.085,1.538,1.538,0,1,1,2.05-2.292,67.781,67.781,0,0,0,8.97,6.777,1.538,1.538,0,0,1-.823,2.838Z" transform="translate(-109.706 -277.016)"/><path class="b" d="M181.855,206.178a6.946,6.946,0,0,1-4.947-2.043l-11.581-11.58a7,7,0,0,1,9.894-9.894l6.633,6.633,17.006-17.006a7,7,0,0,1,9.895,9.894L186.8,204.135A6.946,6.946,0,0,1,181.855,206.178Zm-11.58-22.484a3.921,3.921,0,0,0-2.773,6.687l11.58,11.579a3.937,3.937,0,0,0,5.546,0l21.953-21.953a3.921,3.921,0,0,0-5.545-5.545l-18.093,18.094a1.538,1.538,0,0,1-2.174,0l-7.72-7.72A3.893,3.893,0,0,0,170.275,183.694Z" transform="translate(-97.402 -121.678)"/></g></svg>