<svg xmlns="http://www.w3.org/2000/svg" width="34.248" height="30.999" viewBox="0 0 34.248 30.999"><defs><style>.a{fill:#e60019;stroke:rgba(0,0,0,0);stroke-miterlimit:10;}</style></defs><path class="a" d="M-8338.078-2814.724a2.925,2.925,0,0,1-2.923-2.922v-21.559a2.926,2.926,0,0,1,2.923-2.922h2.338v-1.622a.973.973,0,0,1,.974-.973.975.975,0,0,1,.976.973v1.622h8.44v-1.622a.972.972,0,0,1,.973-.973.975.975,0,0,1,.976.973v1.622h8.44v-1.622a.975.975,0,0,1,.976-.973.973.973,0,0,1,.974.973v1.622h2.338a2.927,2.927,0,0,1,2.922,2.922v21.559a2.926,2.926,0,0,1-2.922,2.922Zm-.974-2.922a.974.974,0,0,0,.974.973h27.4a.974.974,0,0,0,.974-.973v-15.779h-29.351Zm0-21.559v3.833h29.351v-3.833a.976.976,0,0,0-.974-.973h-2.338v1.625a.973.973,0,0,1-.974.973.975.975,0,0,1-.976-.973v-1.625h-8.44v1.625a.975.975,0,0,1-.976.973.972.972,0,0,1-.973-.973v-1.625h-8.44v1.625a.975.975,0,0,1-.976.973.973.973,0,0,1-.974-.973v-1.625h-2.338A.976.976,0,0,0-8339.052-2839.205Zm21.767,19.317a1.056,1.056,0,0,1-1.056-1.055,1.055,1.055,0,0,1,1.056-1.055h2.25a1.054,1.054,0,0,1,1.055,1.055,1.056,1.056,0,0,1-1.055,1.055Zm-8.217,0a1.054,1.054,0,0,1-1.055-1.055A1.053,1.053,0,0,1-8325.5-2822h2.251a1.055,1.055,0,0,1,1.055,1.055,1.056,1.056,0,0,1-1.055,1.055Zm-8.216,0a1.055,1.055,0,0,1-1.056-1.055,1.054,1.054,0,0,1,1.056-1.055h2.248a1.053,1.053,0,0,1,1.055,1.055,1.054,1.054,0,0,1-1.055,1.055Zm16.433-4.132a1.057,1.057,0,0,1-1.056-1.055,1.056,1.056,0,0,1,1.056-1.055h2.25a1.056,1.056,0,0,1,1.055,1.055,1.056,1.056,0,0,1-1.055,1.055Zm-8.217,0a1.054,1.054,0,0,1-1.055-1.055,1.054,1.054,0,0,1,1.055-1.055h2.251a1.056,1.056,0,0,1,1.055,1.055,1.056,1.056,0,0,1-1.055,1.055Zm-8.216,0a1.055,1.055,0,0,1-1.056-1.055,1.055,1.055,0,0,1,1.056-1.055h2.248a1.054,1.054,0,0,1,1.055,1.055,1.054,1.054,0,0,1-1.055,1.055Zm16.433-4.132a1.056,1.056,0,0,1-1.056-1.055,1.057,1.057,0,0,1,1.056-1.055h2.25a1.056,1.056,0,0,1,1.055,1.055,1.056,1.056,0,0,1-1.055,1.055Zm-8.217,0a1.054,1.054,0,0,1-1.055-1.055,1.054,1.054,0,0,1,1.055-1.055h2.251a1.056,1.056,0,0,1,1.055,1.055,1.056,1.056,0,0,1-1.055,1.055Zm-8.216,0a1.055,1.055,0,0,1-1.056-1.055,1.055,1.055,0,0,1,1.056-1.055h2.248a1.054,1.054,0,0,1,1.055,1.055,1.054,1.054,0,0,1-1.055,1.055Z" transform="translate(8341.501 2845.223)"/></svg>