<svg xmlns="http://www.w3.org/2000/svg" width="34.248" height="30.999" viewBox="0 0 34.248 30.999"><defs><style>.a{fill:#e60019;stroke:rgba(0,0,0,0);stroke-miterlimit:10;}</style></defs><path class="a" d="M-7762.078-2814.724a2.926,2.926,0,0,1-2.923-2.921V-2839.2a2.927,2.927,0,0,1,2.923-2.923h2.336v-1.623a.973.973,0,0,1,.975-.972.973.973,0,0,1,.974.972v1.623h8.442v-1.623a.973.973,0,0,1,.974-.972.971.971,0,0,1,.973.972v1.623h8.442v-1.623a.973.973,0,0,1,.974-.972.973.973,0,0,1,.975.972v1.623h2.336a2.927,2.927,0,0,1,2.923,2.923v21.559a2.926,2.926,0,0,1-2.923,2.921Zm-.974-2.921a.974.974,0,0,0,.974.972h27.4a.974.974,0,0,0,.975-.972v-15.779h-29.35Zm0-21.559v3.831h29.35v-3.831a.975.975,0,0,0-.975-.974h-2.336v1.623a.975.975,0,0,1-.975.974.975.975,0,0,1-.974-.974v-1.623h-8.442v1.623a.973.973,0,0,1-.973.974.975.975,0,0,1-.974-.974v-1.623h-8.442v1.623a.975.975,0,0,1-.974.974.975.975,0,0,1-.975-.974v-1.623h-2.336A.975.975,0,0,0-7763.052-2839.2Zm21.768,19.316a1.057,1.057,0,0,1-1.057-1.056,1.056,1.056,0,0,1,1.057-1.054h2.249a1.054,1.054,0,0,1,1.054,1.054,1.055,1.055,0,0,1-1.054,1.056Zm-8.218,0a1.057,1.057,0,0,1-1.054-1.056A1.055,1.055,0,0,1-7749.5-2822h2.251a1.054,1.054,0,0,1,1.054,1.054,1.056,1.056,0,0,1-1.054,1.056Zm-8.216,0a1.056,1.056,0,0,1-1.054-1.056,1.054,1.054,0,0,1,1.054-1.054h2.251a1.055,1.055,0,0,1,1.054,1.054,1.057,1.057,0,0,1-1.054,1.056Zm16.434-4.134a1.055,1.055,0,0,1-1.057-1.054,1.056,1.056,0,0,1,1.057-1.054h2.249a1.054,1.054,0,0,1,1.054,1.054,1.053,1.053,0,0,1-1.054,1.054Zm-8.218,0a1.055,1.055,0,0,1-1.054-1.054,1.055,1.055,0,0,1,1.054-1.054h2.251a1.054,1.054,0,0,1,1.054,1.054,1.054,1.054,0,0,1-1.054,1.054Zm-8.216,0a1.054,1.054,0,0,1-1.054-1.054,1.054,1.054,0,0,1,1.054-1.054h2.251a1.055,1.055,0,0,1,1.054,1.054,1.055,1.055,0,0,1-1.054,1.054Zm16.434-4.131a1.055,1.055,0,0,1-1.057-1.054,1.055,1.055,0,0,1,1.057-1.054h2.249a1.053,1.053,0,0,1,1.054,1.054,1.053,1.053,0,0,1-1.054,1.054Zm-8.218,0a1.055,1.055,0,0,1-1.054-1.054,1.055,1.055,0,0,1,1.054-1.054h2.251a1.054,1.054,0,0,1,1.054,1.054,1.054,1.054,0,0,1-1.054,1.054Zm-8.216,0a1.054,1.054,0,0,1-1.054-1.054,1.054,1.054,0,0,1,1.054-1.054h2.251a1.055,1.055,0,0,1,1.054,1.054,1.055,1.055,0,0,1-1.054,1.054Z" transform="translate(7765.501 2845.223)"/></svg>