<svg xmlns="http://www.w3.org/2000/svg" width="35.9" height="31.003" viewBox="0 0 35.9 31.003"><defs><style>.a{fill:#e60019;stroke:rgba(0,0,0,0);stroke-miterlimit:10;}</style></defs><path class="a" d="M-8176.315-435a.686.686,0,0,1-.686-.685V-453.5a.686.686,0,0,1,.365-.6.7.7,0,0,1,.275-.218l26.729-10.642a.685.685,0,0,1,.891.384l6.587,16.542a.686.686,0,0,1-.381.891l-4.324,1.722v9.727a.685.685,0,0,1-.685.685Zm.686-1.371h27.4v-16.44h-27.4Zm26.567-21.542a.464.464,0,0,1,.055.086l1.453,3.645h.01a.686.686,0,0,1,.685.685v6.612l3.181-1.268-6.083-15.272-23.218,9.243h4.254a.671.671,0,0,1,.375-.365l14-5.576a.748.748,0,0,1,.1-.018.681.681,0,0,1,.878.154,4.1,4.1,0,0,0,3.591,1.547l.058,0A.677.677,0,0,1-8149.062-457.912Zm-16.508,3.735h16.541l-1.143-2.877a5.454,5.454,0,0,1-3.928-1.693Zm11.946,16.419a.691.691,0,0,1-.084.018h-16.439a.48.48,0,0,1-.095-.021.609.609,0,0,1-.106.016.684.684,0,0,1-.655-.488,4.1,4.1,0,0,0-2.766-2.762.681.681,0,0,1-.47-.761.729.729,0,0,1-.019-.094v-5.481a.908.908,0,0,1,.019-.1.677.677,0,0,1,.47-.753,4.1,4.1,0,0,0,2.766-2.764.673.673,0,0,1,.753-.47.576.576,0,0,1,.1-.021h16.439a.5.5,0,0,1,.1.018.68.68,0,0,1,.759.47,4.088,4.088,0,0,0,2.764,2.766.677.677,0,0,1,.47.753.613.613,0,0,1,.021.1v5.481a.572.572,0,0,1-.021.1.676.676,0,0,1-.47.753,4.1,4.1,0,0,0-2.764,2.766s0,0,0,0a.638.638,0,0,1-.618.486A.63.63,0,0,1-8153.625-437.758Zm-19.266-9.294v4.923a5.451,5.451,0,0,1,3.019,3.019h15.884a5.451,5.451,0,0,1,3.019-3.019v-4.923a5.431,5.431,0,0,1-3.019-3.019h-15.884A5.426,5.426,0,0,1-8172.89-447.052Zm6.85,2.463a4.111,4.111,0,0,1,4.11-4.11,4.111,4.111,0,0,1,4.11,4.11,4.109,4.109,0,0,1-4.11,4.108A4.113,4.113,0,0,1-8166.04-444.589Zm1.371,0a2.739,2.739,0,0,0,2.74,2.74,2.741,2.741,0,0,0,2.74-2.74,2.741,2.741,0,0,0-2.74-2.742A2.74,2.74,0,0,0-8164.669-444.589Zm9.247,0a1.027,1.027,0,0,1,1.028-1.028,1.028,1.028,0,0,1,1.028,1.028,1.028,1.028,0,0,1-1.028,1.026A1.027,1.027,0,0,1-8155.422-444.589Zm.686,0a.343.343,0,0,0,.343.343.343.343,0,0,0,.342-.343.342.342,0,0,0-.342-.343A.342.342,0,0,0-8154.737-444.589Zm-15.754,0a1.027,1.027,0,0,1,1.026-1.028,1.028,1.028,0,0,1,1.028,1.028,1.027,1.027,0,0,1-1.028,1.026A1.026,1.026,0,0,1-8170.491-444.589Zm.683,0a.343.343,0,0,0,.343.343.342.342,0,0,0,.343-.343.341.341,0,0,0-.343-.343A.342.342,0,0,0-8169.808-444.589Z" transform="translate(8177.501 465.503)"/></svg>