<svg xmlns="http://www.w3.org/2000/svg" width="35.937" height="31.004" viewBox="0 0 35.937 31.004"><defs><style>.a{fill:#e60019;stroke:rgba(0,0,0,0);stroke-miterlimit:10;}</style></defs><path class="a" d="M-7600.315-435a.686.686,0,0,1-.685-.685V-453.5a.68.68,0,0,1,.364-.6.682.682,0,0,1,.275-.217l26.729-10.642a.684.684,0,0,1,.891.383l6.589,16.543a.688.688,0,0,1-.383.891l-4.323,1.721v9.729a.686.686,0,0,1-.687.685Zm.685-1.37h27.4v-16.442h-27.4Zm26.567-21.544a.85.85,0,0,1,.057.088l1.45,3.645h.011a.686.686,0,0,1,.687.685v6.612l3.18-1.269-6.081-15.272-23.217,9.244h4.252a.674.674,0,0,1,.375-.366l14-5.576a.832.832,0,0,1,.1-.017.679.679,0,0,1,.879.153,4.1,4.1,0,0,0,3.592,1.547l.054,0A.677.677,0,0,1-7573.063-457.914Zm-16.507,3.737h16.541l-1.145-2.877a5.463,5.463,0,0,1-3.928-1.694Zm11.944,16.419a.645.645,0,0,1-.082.017h-16.442a.541.541,0,0,1-.093-.019.659.659,0,0,1-.107.017.685.685,0,0,1-.654-.49,4.1,4.1,0,0,0-2.766-2.762.677.677,0,0,1-.471-.759.939.939,0,0,1-.019-.1v-5.481a.952.952,0,0,1,.019-.1.68.68,0,0,1,.471-.754,4.1,4.1,0,0,0,2.766-2.766.674.674,0,0,1,.751-.469,1.013,1.013,0,0,1,.1-.021h16.442a.763.763,0,0,1,.1.019.677.677,0,0,1,.759.471,4.093,4.093,0,0,0,2.764,2.766.675.675,0,0,1,.469.754.472.472,0,0,1,.021.1v5.481a.669.669,0,0,1-.019.1.678.678,0,0,1-.469.754,4.092,4.092,0,0,0-2.766,2.766s0,0,0,0a.637.637,0,0,1-.618.486A.637.637,0,0,1-7577.626-437.758Zm-19.263-9.294v4.924a5.446,5.446,0,0,1,3.018,3.018h15.884a5.44,5.44,0,0,1,3.018-3.018v-4.924a5.441,5.441,0,0,1-3.02-3.02h-15.882A5.437,5.437,0,0,1-7596.889-447.052Zm6.85,2.461a4.108,4.108,0,0,1,4.109-4.109,4.11,4.11,0,0,1,4.111,4.109,4.111,4.111,0,0,1-4.111,4.111A4.113,4.113,0,0,1-7590.039-444.591Zm1.37,0a2.74,2.74,0,0,0,2.74,2.741,2.74,2.74,0,0,0,2.741-2.741,2.74,2.74,0,0,0-2.741-2.739A2.74,2.74,0,0,0-7588.669-444.591Zm9.248,0a1.027,1.027,0,0,1,1.026-1.026,1.027,1.027,0,0,1,1.028,1.026,1.027,1.027,0,0,1-1.028,1.028A1.027,1.027,0,0,1-7579.421-444.591Zm.685,0a.342.342,0,0,0,.341.343.343.343,0,0,0,.344-.343.343.343,0,0,0-.344-.341A.341.341,0,0,0-7578.736-444.591Zm-15.757,0a1.028,1.028,0,0,1,1.028-1.026,1.028,1.028,0,0,1,1.028,1.026,1.029,1.029,0,0,1-1.028,1.028A1.029,1.029,0,0,1-7594.493-444.591Zm.687,0a.341.341,0,0,0,.341.343.343.343,0,0,0,.343-.343.343.343,0,0,0-.343-.341A.341.341,0,0,0-7593.806-444.591Z" transform="translate(7601.5 465.504)"/></svg>