<svg xmlns="http://www.w3.org/2000/svg" width="221.413" height="100.51" viewBox="0 0 221.413 100.51"><defs><style>.a,.b{fill:none;stroke-linecap:round;stroke-linejoin:round;stroke-width:2px;}.a{stroke:#e60019;}.b{stroke:#fff;}</style></defs><g transform="translate(-96.319 -142.41)"><line class="a" y2="9.672" transform="translate(229.296 209.258)"/><line class="a" y2="12.615" transform="translate(237.044 203.374)"/><line class="a" y2="16.04" transform="translate(243.995 197.009)"/><line class="a" y2="18.292" transform="translate(250.945 191.816)"/><line class="a" y2="15.686" transform="translate(257.896 191.481)"/><line class="a" y2="12.615" transform="translate(264.846 191.612)"/><line class="a" y2="11.691" transform="translate(271.797 191.481)"/><line class="a" y2="9.281" transform="translate(278.747 190.951)"/><line class="a" y2="8.227" transform="translate(285.698 190.951)"/><line class="a" y2="7.172" transform="translate(292.648 190.951)"/><path class="b" d="M118.559,211.984,135.4,220l58.01-18.178,38.5-32.079,66.3-1.6" transform="translate(18.504 21.916)"/><path class="b" d="M97.677,194.571l16.574,7.753,63.8-32.791,43.646-1.954" transform="translate(0 21.418)"/><path class="b" d="M172.347,175.11l37.738-26.433V167.39" transform="translate(66.168 4.668)"/><line class="b" y2="13.634" transform="translate(268.405 159.449)"/><line class="b" y2="10.559" transform="translate(261.306 164.261)"/><line class="b" y2="8.555" transform="translate(255.193 168.405)"/><line class="b" y2="6.215" transform="translate(248.228 173.083)"/><path class="a" d="M97.677,191.322l16.53,8.154L175.024,167.8l51.515-2.435" transform="translate(0 19.454)"/><path class="a" d="M97.677,210.108l60.372-33.149,47.584-2.139,51.015-31.411,21.03,5.347L233.034,179.3"/><line class="b" y2="11.439" transform="translate(175.519 192.253)"/><line class="b" y2="9.624" transform="translate(182.242 191.194)"/><line class="b" y2="7.552" transform="translate(188.925 191.194)"/><line class="b" y2="6.215" transform="translate(195.608 190.459)"/><line class="b" y2="4.545" transform="translate(202.292 190.058)"/><line class="b" y2="8.889" transform="translate(168.742 196.006)"/><line class="b" y2="6.616" transform="translate(161.965 199.482)"/><line class="b" y2="5.401" transform="translate(155.187 203.09)"/><line class="b" y2="4.245" transform="translate(148.41 206.369)"/><line class="b" y2="3.372" transform="translate(141.633 210.108)"/><line class="a" x1="13.901" y1="7.473" transform="translate(161.123 179.778)"/><line class="a" x2="16.066" y2="5.792" transform="translate(205.633 174.82)"/><line class="b" x2="10.515" y2="7.485" transform="translate(196.945 210.375)"/><line class="b" x1="11.609" y1="5.679" transform="translate(237.044 182.751)"/><path class="b" d="M118.559,213.374l15.772,7.753,56.674-17.109,39.144-32.1,68.055-1.58L282.7,162.047l-68.971,1.337-35.287,30.475Z" transform="translate(18.504 16.516)"/></g></svg>