<svg xmlns="http://www.w3.org/2000/svg" width="158" height="116.585" viewBox="0 0 158 116.585"><defs><style>.a,.c{fill:#e60019;}.b{fill:#fff;}.c{opacity:0.4;}</style></defs><g transform="translate(-230.268 -158.542)"><path class="a" d="M561.8,434.621a1.4,1.4,0,1,1,0-2.8h17.745a1.4,1.4,0,0,1,0,2.8Z" transform="translate(-192.673 -159.494)"/><path class="b" d="M337.656,407.972h-2.263l-.852-7.889a4.213,4.213,0,0,0-1.235-2.55l-5.475-5.374a4.211,4.211,0,0,0-4.811-.771l-8.453,4.172a4.225,4.225,0,0,0-1.585,1.359l-1.645,2.352a1.411,1.411,0,0,1-1.831.424l-2.821-1.54a4.211,4.211,0,0,0-6.183,3.1l-.963,6.717H296.49a1.4,1.4,0,0,0,0,2.8h41.166a1.4,1.4,0,1,0,0-2.794Zm-35.292,0,.906-6.324a1.42,1.42,0,0,1,1.4-1.212,1.384,1.384,0,0,1,.677.176l2.822,1.539a4.2,4.2,0,0,0,5.464-1.282l1.637-2.338a1.438,1.438,0,0,1,.537-.465l8.452-4.171a1.414,1.414,0,0,1,1.617.259l5.473,5.373a1.411,1.411,0,0,1,.415.858l.819,7.587Z" transform="translate(-37.833 -135.641)"/><path class="b" d="M524.214,369.82H523.16l-6.071-9.856A4.835,4.835,0,0,0,513,357.688a4.743,4.743,0,0,0-1.656.3l-5.8,2.152a2.02,2.02,0,0,1-.691.122,1.984,1.984,0,0,1-.433-.048l-5.791-1.291a4.754,4.754,0,0,0-2.876.249l-6.762,2.8a4.786,4.786,0,0,0-2.484,6.5l.649,1.352h-4.107a1.4,1.4,0,1,0,0,2.8h41.166a1.4,1.4,0,0,0,0-2.8Zm-33.658,0-1.441-2.391a2,2,0,0,1,.947-2.873l6.764-2.8a2,2,0,0,1,1.2-.1l5.789,1.292a4.792,4.792,0,0,0,2.711-.185l5.8-2.151a1.981,1.981,0,0,1,.688-.122,2.014,2.014,0,0,1,1.7.948l5.168,8.39Z" transform="translate(-146.712 -116.226)"/><path class="b" d="M447.357,358.664a1.4,1.4,0,0,1,0-2.8h8.833a1.4,1.4,0,1,1,0,2.8Z" transform="translate(-125.882 -115.164)"/><path class="a" d="M334.856,358.664a1.4,1.4,0,1,1,0-2.8h4.149a1.4,1.4,0,0,1,0,2.8Z" transform="translate(-60.224 -115.164)"/><path class="c" d="M244.856,358.664a1.4,1.4,0,1,1,0-2.8h27.57a1.4,1.4,0,0,1,0,2.8Z" transform="translate(-7.698 -115.164)"/><path class="b" d="M386.87,223.1h-3.7l-21.32-26.582a3.454,3.454,0,0,0-2.3-1.094H348.935L336.5,182.462a5.11,5.11,0,0,0-3.182-1.4h-7.088a1.73,1.73,0,0,1-1.244-.529l-19.961-20.8a3.906,3.906,0,0,0-2.778-1.2,4.388,4.388,0,0,0-2.844,1.2L285.952,173.75l-11.7,3.969a5.786,5.786,0,0,0-3.411,3.1L264.935,194a2.955,2.955,0,0,1-2.283,1.727l-9.589,1.4a4.879,4.879,0,0,0-3.475,2.305L235.252,223.1h-3.587a1.4,1.4,0,0,0,0,2.8H346.017a1.4,1.4,0,0,0,0-2.8H327.409l-.089-4.691a1.728,1.728,0,0,1,.689-1.412l5.9-4.43a4.547,4.547,0,0,0,1.722-4.476l-2.621-13.5,1.557-10.1,12.7,13.227,9.986,13.905a2.91,2.91,0,0,0,2.376,1.242,3.043,3.043,0,0,0,1.113-.214,2.921,2.921,0,0,0,1.852-3.131l-1.163-9.059L379.582,223.1h-24.2a1.4,1.4,0,1,0,0,2.8H386.87a1.4,1.4,0,0,0,0-2.8ZM268.1,214.78l.3,8.316H238.52l13.458-22.214a2.084,2.084,0,0,1,1.489-.991l9.59-1.4a5.745,5.745,0,0,0,4.429-3.348l5.91-13.177a2.99,2.99,0,0,1,1.758-1.6l12.02-4.077a1.4,1.4,0,0,0,.559-.357l7.244-7.545,1.586.922-6.345,21.418L279.2,196.386a2.953,2.953,0,0,0-1.607,2.577l-.193,10.183-7.377,2.757A2.956,2.956,0,0,0,268.1,214.78ZM271.2,223.1l-.3-8.534,7.384-2.759a2.946,2.946,0,0,0,1.922-2.716l.191-10.169L291.32,193.3a3.3,3.3,0,0,0,1.685-2.138l9.033-30.5,20.98,21.855-5.617,9.4a3.613,3.613,0,0,0-.5,2.288l.724,6.274-8.211,5.632a3.586,3.586,0,0,0-1.556,2.9l-.12,8.314-6.6,5.76Zm61.029-12.768-5.9,4.43a4.528,4.528,0,0,0-1.8,3.7l.086,4.638H305.385l3.921-3.421a3.591,3.591,0,0,0,1.228-2.649l.121-8.372,8.157-5.593a3.576,3.576,0,0,0,1.533-3.368l-.7-6.067,5.566-9.313.282-.466.543.006c.167,0,4.7.01,4.7.01l1.1,0-1.566,10.159a3.586,3.586,0,0,0,.023,1.23l2.6,13.372A1.736,1.736,0,0,1,332.227,210.328Zm25.491-2.849-6.652-9.263h7.253l1.1,8.592Z"/></g></svg>