<svg xmlns="http://www.w3.org/2000/svg" width="233.146" height="57.931" viewBox="0 0 233.146 57.931"><defs><style>.a{fill:#fff;stroke:rgba(0,0,0,0);stroke-miterlimit:10;}</style></defs><path class="a" d="M-7469.888-2235.352a4.093,4.093,0,0,1-1.589-1.533,4.272,4.272,0,0,1-.575-2.2,4.273,4.273,0,0,1,.575-2.2,4.1,4.1,0,0,1,1.593-1.533,4.652,4.652,0,0,1,2.28-.559,4.719,4.719,0,0,1,1.8.332,3.654,3.654,0,0,1,1.391.976l-.779.756a3.127,3.127,0,0,0-2.361-1,3.4,3.4,0,0,0-1.689.421,3.013,3.013,0,0,0-1.183,1.155,3.234,3.234,0,0,0-.424,1.649,3.237,3.237,0,0,0,.424,1.647,3.031,3.031,0,0,0,1.183,1.157,3.418,3.418,0,0,0,1.689.42,3.143,3.143,0,0,0,2.361-1.007l.779.754a3.778,3.778,0,0,1-1.4.984,4.771,4.771,0,0,1-1.806.333A4.625,4.625,0,0,1-7469.888-2235.352Zm-53.715.264a3.752,3.752,0,0,1-1.385-.762l.443-.934a3.676,3.676,0,0,0,1.229.7,4.485,4.485,0,0,0,1.541.27,2.78,2.78,0,0,0,1.559-.353,1.094,1.094,0,0,0,.515-.941.935.935,0,0,0-.282-.7,1.878,1.878,0,0,0-.7-.413c-.274-.094-.664-.2-1.167-.322a12.318,12.318,0,0,1-1.529-.457,2.52,2.52,0,0,1-1-.7,1.875,1.875,0,0,1-.413-1.277,2.163,2.163,0,0,1,.353-1.211,2.427,2.427,0,0,1,1.072-.862,4.326,4.326,0,0,1,1.788-.326,5.681,5.681,0,0,1,1.462.193,3.873,3.873,0,0,1,1.234.552l-.4.959a4.313,4.313,0,0,0-1.128-.509,4.2,4.2,0,0,0-1.173-.174,2.6,2.6,0,0,0-1.529.37,1.142,1.142,0,0,0-.509.958.912.912,0,0,0,.287.7,1.984,1.984,0,0,0,.714.42,11.07,11.07,0,0,0,1.155.318,11.431,11.431,0,0,1,1.524.455,2.542,2.542,0,0,1,.989.7,1.826,1.826,0,0,1,.413,1.258,2.142,2.142,0,0,1-.358,1.2,2.413,2.413,0,0,1-1.092.864,4.506,4.506,0,0,1-1.8.316A5.722,5.722,0,0,1-7523.6-2235.087Zm-24.665-.664a3.8,3.8,0,0,1-.934-2.758v-4.77h1.2v4.721q0,2.7,2.363,2.7a2.277,2.277,0,0,0,1.761-.665,2.923,2.923,0,0,0,.611-2.033v-4.721h1.163v4.77a3.79,3.79,0,0,1-.936,2.764,3.493,3.493,0,0,1-2.613.951A3.488,3.488,0,0,1-7548.268-2235.751Zm-12.792.4a4.105,4.105,0,0,1-1.6-1.539,4.229,4.229,0,0,1-.583-2.193,4.235,4.235,0,0,1,.583-2.195,4.119,4.119,0,0,1,1.6-1.539,4.675,4.675,0,0,1,2.29-.559,4.634,4.634,0,0,1,2.278.559,4.08,4.08,0,0,1,1.6,1.533,4.256,4.256,0,0,1,.577,2.2,4.254,4.254,0,0,1-.577,2.2,4.066,4.066,0,0,1-1.6,1.533,4.654,4.654,0,0,1-2.278.557A4.7,4.7,0,0,1-7561.06-2235.352Zm.617-6.536a3.023,3.023,0,0,0-1.172,1.155,3.216,3.216,0,0,0-.426,1.649,3.219,3.219,0,0,0,.426,1.647,3.041,3.041,0,0,0,1.172,1.157,3.369,3.369,0,0,0,1.672.42,3.294,3.294,0,0,0,1.661-.42,3.074,3.074,0,0,0,1.163-1.157,3.239,3.239,0,0,0,.426-1.647,3.235,3.235,0,0,0-.426-1.649,3.055,3.055,0,0,0-1.163-1.155,3.274,3.274,0,0,0-1.661-.421A3.349,3.349,0,0,0-7560.442-2241.888Zm-12.477,6.536a4.092,4.092,0,0,1-1.589-1.533,4.253,4.253,0,0,1-.575-2.2,4.255,4.255,0,0,1,.575-2.2,4.1,4.1,0,0,1,1.595-1.533,4.635,4.635,0,0,1,2.278-.559,4.712,4.712,0,0,1,1.8.332,3.632,3.632,0,0,1,1.391.976l-.779.756a3.127,3.127,0,0,0-2.363-1,3.4,3.4,0,0,0-1.689.421,3.021,3.021,0,0,0-1.181,1.155,3.24,3.24,0,0,0-.426,1.649,3.243,3.243,0,0,0,.426,1.647,3.039,3.039,0,0,0,1.181,1.157,3.424,3.424,0,0,0,1.689.42,3.141,3.141,0,0,0,2.363-1.007l.779.754a3.755,3.755,0,0,1-1.4.984,4.769,4.769,0,0,1-1.805.333A4.625,4.625,0,0,1-7572.919-2235.352Zm113.574.463v-8.39h5.923v1.042h-4.724v2.579h4.207v1.017h-4.207v2.71h4.892v1.043Zm-17.766,0-.924-2.1h-4.459l-.922,2.1h-1.234l3.8-8.39h1.186l3.813,8.39Zm-4.962-3.057h3.62l-1.811-4.112Zm-7.767,3.057-1.811-2.577c-.224.015-.4.023-.527.023h-2.073v2.554h-1.2v-8.39h3.273a3.9,3.9,0,0,1,2.565.777,2.644,2.644,0,0,1,.934,2.147,2.806,2.806,0,0,1-.479,1.655,2.72,2.72,0,0,1-1.366,1l1.989,2.816Zm-4.411-3.572h2.037a2.676,2.676,0,0,0,1.738-.492,1.705,1.705,0,0,0,.6-1.4,1.688,1.688,0,0,0-.6-1.4,2.7,2.7,0,0,0-1.738-.486h-2.037Zm-19.17,3.572v-8.39h5.921v1.042h-4.724v2.579h4.208v1.017h-4.208v2.71h4.892v1.043Zm-17.26,0-1.809-2.577c-.224.015-.4.023-.528.023h-2.074v2.554h-1.2v-8.39h3.271a3.888,3.888,0,0,1,2.565.777,2.64,2.64,0,0,1,.936,2.147,2.82,2.82,0,0,1-.479,1.655,2.715,2.715,0,0,1-1.367,1l1.99,2.816Zm-4.411-3.572h2.037a2.672,2.672,0,0,0,1.738-.492,1.707,1.707,0,0,0,.6-1.4,1.689,1.689,0,0,0-.6-1.4,2.694,2.694,0,0,0-1.738-.486h-2.037Zm29.688-11.273a4.094,4.094,0,0,1-1.589-1.535,4.251,4.251,0,0,1-.575-2.2,4.253,4.253,0,0,1,.575-2.2,4.1,4.1,0,0,1,1.595-1.535,4.674,4.674,0,0,1,2.276-.556,4.8,4.8,0,0,1,1.8.328,3.669,3.669,0,0,1,1.389.978l-.777.756a3.122,3.122,0,0,0-2.363-1,3.42,3.42,0,0,0-1.689.418,3.064,3.064,0,0,0-1.18,1.157,3.24,3.24,0,0,0-.426,1.649,3.239,3.239,0,0,0,.426,1.647,3.038,3.038,0,0,0,1.18,1.157,3.418,3.418,0,0,0,1.689.42,3.135,3.135,0,0,0,2.363-1.007l.777.754a3.72,3.72,0,0,1-1.395.984,4.764,4.764,0,0,1-1.805.334A4.643,4.643,0,0,1-7505.405-2249.734Zm-38.924.262a3.75,3.75,0,0,1-1.385-.76l.444-.936a3.652,3.652,0,0,0,1.229.7,4.48,4.48,0,0,0,1.539.27,2.788,2.788,0,0,0,1.561-.353,1.088,1.088,0,0,0,.513-.941.926.926,0,0,0-.279-.7,1.861,1.861,0,0,0-.7-.415c-.276-.1-.664-.2-1.167-.324a12.015,12.015,0,0,1-1.53-.455,2.508,2.508,0,0,1-1-.7,1.866,1.866,0,0,1-.413-1.275,2.162,2.162,0,0,1,.353-1.211,2.424,2.424,0,0,1,1.072-.862,4.354,4.354,0,0,1,1.786-.324,5.685,5.685,0,0,1,1.464.191,3.9,3.9,0,0,1,1.234.552l-.4.958a4.342,4.342,0,0,0-1.128-.509,4.2,4.2,0,0,0-1.174-.174,2.594,2.594,0,0,0-1.528.37,1.142,1.142,0,0,0-.509.959.919.919,0,0,0,.288.7,1.963,1.963,0,0,0,.714.42,10.924,10.924,0,0,0,1.157.318,11.416,11.416,0,0,1,1.52.455,2.566,2.566,0,0,1,.992.694,1.842,1.842,0,0,1,.413,1.258,2.14,2.14,0,0,1-.359,1.205,2.414,2.414,0,0,1-1.092.864,4.512,4.512,0,0,1-1.8.316A5.713,5.713,0,0,1-7544.33-2249.472Zm-28.57-.262a4.122,4.122,0,0,1-1.6-1.541,4.228,4.228,0,0,1-.581-2.193,4.229,4.229,0,0,1,.581-2.195,4.12,4.12,0,0,1,1.6-1.541,4.69,4.69,0,0,1,2.288-.556,4.681,4.681,0,0,1,2.278.556,4.112,4.112,0,0,1,1.595,1.535,4.268,4.268,0,0,1,.575,2.2,4.266,4.266,0,0,1-.575,2.2,4.1,4.1,0,0,1-1.595,1.535,4.68,4.68,0,0,1-2.278.555A4.69,4.69,0,0,1-7572.9-2249.734Zm.615-6.541a3.094,3.094,0,0,0-1.175,1.157,3.245,3.245,0,0,0-.426,1.649,3.244,3.244,0,0,0,.426,1.647,3.067,3.067,0,0,0,1.175,1.157,3.364,3.364,0,0,0,1.672.42,3.3,3.3,0,0,0,1.661-.42,3.078,3.078,0,0,0,1.163-1.157,3.243,3.243,0,0,0,.424-1.647,3.244,3.244,0,0,0-.424-1.649,3.1,3.1,0,0,0-1.163-1.157,3.3,3.3,0,0,0-1.661-.418A3.365,3.365,0,0,0-7572.285-2256.275Zm91.494,7v-8.392h5.923v1.043h-4.724v2.577h4.207v1.018h-4.207v2.71h4.892v1.043Zm-12.274,0v-8.392h1.2v7.349h4.542v1.043Zm-21.361,0-.924-2.1h-4.459l-.924,2.1h-1.234l3.8-8.392h1.186l3.813,8.392Zm-4.962-3.057h3.62l-1.811-4.112Zm-11.413,3.057v-7.349h-2.877v-1.043h6.941v1.043h-2.878v7.349Zm-28.375,0v-8.392h3.765a3.715,3.715,0,0,1,2.224.577,1.867,1.867,0,0,1,.785,1.593,2.087,2.087,0,0,1-.3,1.14,2.027,2.027,0,0,1-.822.731,2.144,2.144,0,0,1,1.15.737,2.118,2.118,0,0,1,.42,1.348,1.936,1.936,0,0,1-.822,1.678,4.071,4.071,0,0,1-2.392.588Zm1.2-.972h2.756a2.827,2.827,0,0,0,1.536-.335,1.165,1.165,0,0,0,.515-1.053q0-1.4-2.05-1.4h-2.756Zm0-3.763h2.457a2.489,2.489,0,0,0,1.419-.341,1.134,1.134,0,0,0,.5-1,1.132,1.132,0,0,0-.5-1,2.474,2.474,0,0,0-1.419-.341h-2.457Zm-48.913-3.092v-26.48h15.283a4.389,4.389,0,0,1,4.251,3.292l4.706,18.2a4.93,4.93,0,0,1-5.132,4.99Zm6.193-5.375h11.977l-4.1-15.685h-7.875Zm-31.568,5.375v-26.48h6.193v21.1h15.849v5.375Zm-10.8,0v-26.48h6.2v26.48Zm-17.467,0-4.97-19.879h-.245l-4.723,19.879h-7.945l-6.845-26.48h6.357l4.4,20.533h.286l4.685-20.533h7.659l5.094,20.574h.245l4.479-20.574h6.276l-6.764,26.48Zm145.4-8.143L-7525.6-2276.4h-5.4v11.162h-6.193v-26.482H-7531v10.755h5.4l10.184-10.755h7.5l-11.935,12.589v.409l12.587,13.484Zm-49.449,0v-4.806l17.314-13.445v-3.177h-11.2v7.231l-6.11,4.745v-11.813c0-3.5,1.343-5.215,4.849-5.215h12.751c4.685,0,5.825,1.549,5.825,5.3v2.322c0,2.158-.407,3.055-2.484,4.521l-12.386,9.287h15.073v5.053Zm-10.479,0v-18.375a5.5,5.5,0,0,1-3.761,1.994l-1.285-4.97c2.828-.181,5.046-1.931,5.046-5.13h6.193v26.482Zm71.346-.021v-5.03h5.032v5.03Z" transform="translate(7685.9 2292.225)"/></svg>