<svg xmlns="http://www.w3.org/2000/svg" width="233.146" height="57.931" viewBox="0 0 233.146 57.931"><defs><style>.a{fill:#fff;stroke:rgba(0,0,0,0);stroke-miterlimit:10;}</style></defs><path class="a" d="M-8045.889-2235.351a4.125,4.125,0,0,1-1.588-1.534,4.272,4.272,0,0,1-.574-2.2,4.276,4.276,0,0,1,.574-2.2,4.128,4.128,0,0,1,1.595-1.534,4.674,4.674,0,0,1,2.278-.558,4.749,4.749,0,0,1,1.8.33,3.685,3.685,0,0,1,1.392.977l-.78.757a3.127,3.127,0,0,0-2.361-1,3.4,3.4,0,0,0-1.69.421,3.029,3.029,0,0,0-1.182,1.155,3.253,3.253,0,0,0-.425,1.65,3.249,3.249,0,0,0,.425,1.646,3.068,3.068,0,0,0,1.182,1.159,3.444,3.444,0,0,0,1.69.419,3.133,3.133,0,0,0,2.361-1.008l.78.755a3.764,3.764,0,0,1-1.4.985,4.751,4.751,0,0,1-1.8.334A4.617,4.617,0,0,1-8045.889-2235.351Zm-53.715.265a3.756,3.756,0,0,1-1.383-.763l.444-.933a3.655,3.655,0,0,0,1.228.7,4.5,4.5,0,0,0,1.54.272,2.769,2.769,0,0,0,1.559-.354,1.091,1.091,0,0,0,.515-.941.933.933,0,0,0-.28-.7,1.911,1.911,0,0,0-.7-.415c-.276-.093-.664-.2-1.167-.321a12.36,12.36,0,0,1-1.53-.456,2.53,2.53,0,0,1-1-.7,1.88,1.88,0,0,1-.413-1.275,2.153,2.153,0,0,1,.354-1.211,2.412,2.412,0,0,1,1.072-.863,4.321,4.321,0,0,1,1.787-.325,5.629,5.629,0,0,1,1.461.193,3.879,3.879,0,0,1,1.234.552l-.394.958a4.344,4.344,0,0,0-1.128-.508,4.2,4.2,0,0,0-1.173-.174,2.606,2.606,0,0,0-1.53.371,1.138,1.138,0,0,0-.508.958.92.92,0,0,0,.286.7,2,2,0,0,0,.715.419,11.022,11.022,0,0,0,1.155.319,11.834,11.834,0,0,1,1.524.454,2.562,2.562,0,0,1,.989.7,1.824,1.824,0,0,1,.413,1.256,2.149,2.149,0,0,1-.359,1.207,2.417,2.417,0,0,1-1.092.863,4.51,4.51,0,0,1-1.8.317A5.774,5.774,0,0,1-8099.6-2235.086Zm-24.664-.666a3.8,3.8,0,0,1-.933-2.758v-4.771h1.2v4.723q0,2.7,2.361,2.7a2.274,2.274,0,0,0,1.76-.666,2.92,2.92,0,0,0,.612-2.032v-4.723h1.163v4.771a3.778,3.778,0,0,1-.935,2.762,3.485,3.485,0,0,1-2.612.954A3.488,3.488,0,0,1-8124.269-2235.751Zm-12.79.4a4.111,4.111,0,0,1-1.6-1.541,4.2,4.2,0,0,1-.583-2.191,4.2,4.2,0,0,1,.583-2.194,4.117,4.117,0,0,1,1.6-1.542,4.7,4.7,0,0,1,2.291-.558,4.672,4.672,0,0,1,2.276.558,4.1,4.1,0,0,1,1.595,1.534,4.259,4.259,0,0,1,.576,2.2,4.255,4.255,0,0,1-.576,2.2,4.086,4.086,0,0,1-1.595,1.534,4.648,4.648,0,0,1-2.276.558A4.678,4.678,0,0,1-8137.059-2235.351Zm-.556-2.086a3.063,3.063,0,0,0,1.173,1.159,3.387,3.387,0,0,0,1.673.419,3.32,3.32,0,0,0,1.661-.419,3.1,3.1,0,0,0,1.161-1.159,3.231,3.231,0,0,0,.427-1.646,3.235,3.235,0,0,0-.427-1.65,3.059,3.059,0,0,0-1.161-1.155,3.279,3.279,0,0,0-1.661-.421,3.345,3.345,0,0,0-1.673.421,3.024,3.024,0,0,0-1.173,1.155,3.235,3.235,0,0,0-.427,1.65A3.231,3.231,0,0,0-8137.614-2237.437Zm-11.306,2.086a4.107,4.107,0,0,1-1.588-1.534,4.25,4.25,0,0,1-.577-2.2,4.255,4.255,0,0,1,.577-2.2,4.1,4.1,0,0,1,1.594-1.534,4.677,4.677,0,0,1,2.278-.558,4.753,4.753,0,0,1,1.8.33,3.687,3.687,0,0,1,1.391.977l-.782.757a3.12,3.12,0,0,0-2.359-1,3.4,3.4,0,0,0-1.692.421,3.024,3.024,0,0,0-1.18,1.155,3.234,3.234,0,0,0-.425,1.65,3.229,3.229,0,0,0,.425,1.646,3.063,3.063,0,0,0,1.18,1.159,3.446,3.446,0,0,0,1.692.419,3.126,3.126,0,0,0,2.359-1.008l.782.755a3.764,3.764,0,0,1-1.4.985,4.757,4.757,0,0,1-1.8.334A4.617,4.617,0,0,1-8148.92-2235.351Zm113.576.462v-8.391h5.921v1.043h-4.723v2.577h4.207v1.018h-4.207v2.71h4.891v1.043Zm-17.766,0-.923-2.1h-4.459l-.923,2.1h-1.236l3.8-8.391h1.186l3.813,8.391Zm-4.964-3.058h3.62l-1.81-4.111Zm-7.767,3.058-1.81-2.577q-.336.025-.529.025h-2.073v2.552h-1.2v-8.391h3.272a3.9,3.9,0,0,1,2.566.777,2.649,2.649,0,0,1,.933,2.148,2.816,2.816,0,0,1-.479,1.655,2.711,2.711,0,0,1-1.366.993l1.99,2.818Zm-4.412-3.572h2.038a2.682,2.682,0,0,0,1.737-.491,1.71,1.71,0,0,0,.6-1.4,1.691,1.691,0,0,0-.6-1.4,2.694,2.694,0,0,0-1.737-.485h-2.038Zm-19.168,3.572v-8.391h5.921v1.043h-4.723v2.577h4.207v1.018h-4.207v2.71h4.891v1.043Zm-17.26,0-1.81-2.577q-.335.025-.528.025h-2.073v2.552h-1.2v-8.391h3.272a3.9,3.9,0,0,1,2.566.777,2.649,2.649,0,0,1,.933,2.148,2.816,2.816,0,0,1-.479,1.655,2.711,2.711,0,0,1-1.366.993l1.99,2.818Zm-2.376-3.572a2.684,2.684,0,0,0,1.74-.491,1.711,1.711,0,0,0,.6-1.4,1.692,1.692,0,0,0-.6-1.4,2.7,2.7,0,0,0-1.74-.485h-2.036v3.776Zm27.652-11.275a4.1,4.1,0,0,1-1.59-1.532,4.258,4.258,0,0,1-.574-2.2,4.251,4.251,0,0,1,.574-2.2,4.1,4.1,0,0,1,1.594-1.534,4.676,4.676,0,0,1,2.279-.556,4.8,4.8,0,0,1,1.8.328,3.7,3.7,0,0,1,1.389.979l-.779.755a3.128,3.128,0,0,0-2.362-1,3.416,3.416,0,0,0-1.689.419,3.074,3.074,0,0,0-1.182,1.157,3.251,3.251,0,0,0-.425,1.648,3.251,3.251,0,0,0,.425,1.648,3.044,3.044,0,0,0,1.182,1.157,3.394,3.394,0,0,0,1.689.421,3.135,3.135,0,0,0,2.362-1.008l.779.755a3.717,3.717,0,0,1-1.4.983,4.72,4.72,0,0,1-1.8.336A4.633,4.633,0,0,1-8081.4-2249.736Zm-38.924.263a3.739,3.739,0,0,1-1.385-.759l.441-.935a3.73,3.73,0,0,0,1.229.7,4.556,4.556,0,0,0,1.541.27,2.767,2.767,0,0,0,1.559-.355,1.086,1.086,0,0,0,.514-.941.932.932,0,0,0-.28-.7,1.9,1.9,0,0,0-.7-.415c-.276-.1-.664-.2-1.167-.321a12.476,12.476,0,0,1-1.53-.456,2.532,2.532,0,0,1-.993-.7,1.867,1.867,0,0,1-.415-1.277,2.155,2.155,0,0,1,.354-1.211,2.412,2.412,0,0,1,1.072-.862,4.356,4.356,0,0,1,1.787-.323,5.62,5.62,0,0,1,1.462.191,3.835,3.835,0,0,1,1.235.552l-.4.958a4.34,4.34,0,0,0-1.127-.508,4.191,4.191,0,0,0-1.174-.174,2.6,2.6,0,0,0-1.53.371,1.14,1.14,0,0,0-.508.958.915.915,0,0,0,.289.7,1.952,1.952,0,0,0,.711.419,10.562,10.562,0,0,0,1.159.319,11.764,11.764,0,0,1,1.52.454,2.558,2.558,0,0,1,.991.7,1.827,1.827,0,0,1,.413,1.257,2.138,2.138,0,0,1-.359,1.207,2.418,2.418,0,0,1-1.09.863,4.536,4.536,0,0,1-1.8.317A5.7,5.7,0,0,1-8120.329-2249.472Zm-28.572-.263a4.1,4.1,0,0,1-1.6-1.541,4.223,4.223,0,0,1-.583-2.194,4.228,4.228,0,0,1,.583-2.193,4.116,4.116,0,0,1,1.6-1.541,4.7,4.7,0,0,1,2.289-.556,4.673,4.673,0,0,1,2.278.556,4.11,4.11,0,0,1,1.595,1.534,4.274,4.274,0,0,1,.574,2.2,4.282,4.282,0,0,1-.574,2.2,4.105,4.105,0,0,1-1.595,1.532,4.674,4.674,0,0,1-2.278.558A4.7,4.7,0,0,1-8148.9-2249.736Zm-.558-2.086a3.059,3.059,0,0,0,1.176,1.157,3.334,3.334,0,0,0,1.671.421,3.274,3.274,0,0,0,1.661-.421,3.087,3.087,0,0,0,1.163-1.157,3.251,3.251,0,0,0,.425-1.648,3.251,3.251,0,0,0-.425-1.648,3.117,3.117,0,0,0-1.163-1.157,3.3,3.3,0,0,0-1.661-.419,3.356,3.356,0,0,0-1.671.419,3.088,3.088,0,0,0-1.176,1.157,3.231,3.231,0,0,0-.425,1.648A3.231,3.231,0,0,0-8149.459-2251.821Zm92.668,2.548v-8.391h5.921v1.043h-4.723v2.577h4.207v1.018h-4.207v2.71h4.891v1.043Zm-12.274,0v-8.391h1.2v7.348h4.542v1.043Zm-21.361,0-.925-2.1h-4.458l-.925,2.1h-1.233l3.8-8.391h1.186l3.813,8.391Zm-1.344-3.058-1.81-4.112-1.81,4.112Zm-15.031,3.058v-7.348h-2.878v-1.043h6.939v1.043h-2.875v7.348Zm-28.375,0v-8.391h3.763a3.715,3.715,0,0,1,2.225.574,1.868,1.868,0,0,1,.786,1.594,2.068,2.068,0,0,1-.307,1.14,2.008,2.008,0,0,1-.821.73,2.16,2.16,0,0,1,1.15.736,2.118,2.118,0,0,1,.421,1.35,1.945,1.945,0,0,1-.821,1.679,4.092,4.092,0,0,1-2.393.587Zm3.956-.97a2.833,2.833,0,0,0,1.534-.336,1.167,1.167,0,0,0,.514-1.055q0-1.4-2.048-1.4h-2.757v2.793Zm-.3-3.765a2.486,2.486,0,0,0,1.42-.342,1.132,1.132,0,0,0,.5-1,1.131,1.131,0,0,0-.5-1,2.486,2.486,0,0,0-1.42-.342h-2.457v2.685Zm-51.371-3.091v-26.48h15.285a4.392,4.392,0,0,1,4.252,3.292l4.7,18.2a4.929,4.929,0,0,1-5.131,4.988Zm6.193-5.376h11.977l-4.1-15.685h-7.876Zm-31.568,5.376v-26.48h6.192v21.1h15.851v5.376Zm-10.792,0v-26.48h6.193v26.48Zm-17.47,0-4.97-19.879h-.244l-4.726,19.879h-7.942l-6.847-26.48h6.357l4.4,20.534h.284l4.686-20.534h7.658l5.095,20.575h.242l4.48-20.575h6.276l-6.764,26.48Zm161.687-8.144-10.47-11.161h-5.4v11.161h-6.193v-26.48h6.193v10.754h5.4l10.184-10.754h7.5l-11.934,12.589v.408l12.589,13.483Zm-45.863,0c-2.648,0-5.009-1.387-5.009-4.684v-17.762c0-2.855,1.752-4.035,4.275-4.035h16.624c3.216,0,4.153,2.036,4.153,5.337v16.132a4.964,4.964,0,0,1-5.171,5.011Zm1.057-5.376h12.873V-2286.3h-12.873Zm-32.8,5.376-1.068-4.086,18.384-14.165v-3.176h-11.207v7.231l-6.11,4.744v-11.814c0-3.5,1.344-5.214,4.85-5.214h12.75c4.684,0,5.826,1.549,5.826,5.3v2.322c0,2.158-.408,3.056-2.486,4.522l-12.386,9.286h15.073v5.053Zm89.025-.021v-5.03h5.032v5.03Z" transform="translate(8261.901 2292.224)"/></svg>