<?xml version="1.0" encoding="UTF-8" standalone="no"?>
<svg
   xmlns:dc="http://purl.org/dc/elements/1.1/"
   xmlns:cc="http://creativecommons.org/ns#"
   xmlns:rdf="http://www.w3.org/1999/02/22-rdf-syntax-ns#"
   xmlns:svg="http://www.w3.org/2000/svg"
   xmlns="http://www.w3.org/2000/svg"
   xmlns:sodipodi="http://sodipodi.sourceforge.net/DTD/sodipodi-0.dtd"
   xmlns:inkscape="http://www.inkscape.org/namespaces/inkscape"
   width="368"
   height="253.571"
   viewBox="0 0 368 253.571"
   version="1.1"
   id="svg86"
   sodipodi:docname="WW-logo-black.svg"
   inkscape:version="1.0.2 (e86c870879, 2021-01-15)">
  <metadata
     id="metadata90">
    <rdf:RDF>
      <cc:Work
         rdf:about="">
        <dc:format>image/svg+xml</dc:format>
        <dc:type
           rdf:resource="http://purl.org/dc/dcmitype/StillImage" />
      </cc:Work>
    </rdf:RDF>
  </metadata>
  <sodipodi:namedview
     pagecolor="#ffffff"
     bordercolor="#666666"
     borderopacity="1"
     objecttolerance="10"
     gridtolerance="10"
     guidetolerance="10"
     inkscape:pageopacity="0"
     inkscape:pageshadow="2"
     inkscape:window-width="1920"
     inkscape:window-height="1017"
     id="namedview88"
     showgrid="false"
     inkscape:zoom="3.4700898"
     inkscape:cx="184"
     inkscape:cy="132.31636"
     inkscape:window-x="-8"
     inkscape:window-y="-8"
     inkscape:window-maximized="1"
     inkscape:current-layer="g84"
     inkscape:document-rotation="0" />
  <defs
     id="defs4">
    <style
       id="style2">.a{fill:#fff;}.b{fill:#e60019;}</style>
  </defs>
  <g
     transform="translate(-321.732 -378.094)"
     id="g84"
     style="fill:#e60019;fill-opacity:1">
    <g
       transform="translate(352.759 553.011)"
       id="g26"
       style="fill:#000000;fill-opacity:1">
      <g
         transform="translate(0 14.334)"
         id="g14"
         style="fill:#000000;fill-opacity:1">
        <path
           class="a"
           d="M338.462,480.138h8.381l5.8,27.07h.375l6.178-27.07h10.1l6.715,27.125h.321l5.909-27.125h8.273l-8.919,34.913H371.066l-6.552-26.211h-.323l-6.23,26.211H347.488Z"
           transform="translate(-338.462 -480.138)"
           id="path6"
           style="fill:#000000;fill-opacity:1" />
        <path
           class="a"
           d="M368.46,480.138h8.166v34.913H368.46Z"
           transform="translate(-312.826 -480.138)"
           id="path8"
           style="fill:#000000;fill-opacity:1" />
        <path
           class="a"
           d="M376.133,480.138H384.3v27.823h20.9v7.09H376.133Z"
           transform="translate(-306.268 -480.138)"
           id="path10"
           style="fill:#000000;fill-opacity:1" />
        <path
           class="a"
           d="M414.323,480.138h-20.15v34.913h25.193a6.5,6.5,0,0,0,6.766-6.578l-6.2-23.995A5.79,5.79,0,0,0,414.323,480.138Zm3.806,27.823h-15.79V487.282h10.382Z"
           transform="translate(-290.851 -480.138)"
           id="path12"
           style="fill:#000000;fill-opacity:1" />
      </g>
      <g
         transform="translate(133.544)"
         id="g24"
         style="fill:#000000;fill-opacity:1">
        <path
           class="a"
           d="M440.689,474.348h28.63v6.66H448.853v7.305h14.611v6.552H448.853V502.6h20.466v6.662h-28.63Z"
           transform="translate(-384.643 -470.752)"
           id="path16"
           style="fill:#000000;fill-opacity:1" />
        <path
           class="a"
           d="M490.258,502.762c0,3.867-2.418,6.5-6.767,6.5H464.9c-3.437,0-6.552-1.827-6.552-6.179v-5.907h8.058v5.371h15.846v-5.531l-20.035-5.05c-2.952-.753-3.869-2.363-3.869-5.478v-6.823c0-3.759,2.259-5.317,5.911-5.317h19.926c4.943,0,6.07,2.686,6.07,7.038v4.457h-8v-4.835H466.409v4.943l20.143,5.156c2.953.753,3.705,2.2,3.705,5.8Z"
           transform="translate(-369.549 -470.752)"
           id="path18"
           style="fill:#000000;fill-opacity:1" />
        <path
           class="a"
           d="M489.206,481.331H477.173v-6.983h32.281v6.983H497.368v27.932h-8.162Z"
           transform="translate(-353.464 -470.752)"
           id="path20"
           style="fill:#000000;fill-opacity:1" />
        <path
           class="a"
           d="M410.469,472.409h8.381l6.747,30.668h.378l6.174-27.072h10.1l6.716,27.125h.323l5.907-27.125h8.273l-8.919,34.915H444.021l-6.554-26.211h-.321l-6.231,26.211H420.441Z"
           transform="translate(-410.469 -472.409)"
           id="path22"
           style="fill:#000000;fill-opacity:1" />
      </g>
    </g>
    <g
       transform="translate(321.732 378.094)"
       id="g44"
       style="fill:#e60019;fill-opacity:1">
      <g
         transform="translate(0 79.03)"
         id="g30"
         style="fill:#e60019;fill-opacity:1">
        <path
           class="b"
           d="M405.465,420.707l-83.733,39.538,26.651,51.692h91.3Z"
           transform="translate(-321.732 -420.707)"
           id="path28"
           style="fill:#e60019;fill-opacity:1" />
      </g>
      <g
         transform="translate(176.213 55.137)"
         id="g34"
         style="fill:#e60019;fill-opacity:1">
        <path
           class="b"
           d="M482.257,425.592l-65.511-17.768,33.709,90.3Z"
           transform="translate(-416.746 -407.824)"
           id="path32"
           style="fill:#e60019;fill-opacity:1" />
      </g>
      <g
         transform="translate(114.584 102.923)"
         id="g38"
         style="fill:#e60019;fill-opacity:1">
        <path
           class="b"
           d="M427.752,485.308,453.53,433.59l-70.015,20.463L395.3,485.308Z"
           transform="translate(-383.516 -433.59)"
           id="path36"
           style="fill:#e60019;fill-opacity:1" />
      </g>
      <g
         transform="translate(216.866)"
         id="g42"
         style="fill:#e60019;fill-opacity:1">
        <path
           class="b"
           d="M589.8,493.93,508.613,378.094,438.666,537.627H558.15Z"
           transform="translate(-438.666 -378.094)"
           id="path40"
           style="fill:#e60019;fill-opacity:1" />
      </g>
    </g>
    <g
       transform="translate(498.014 601.385)"
       id="g82"
       style="fill:#000000;fill-opacity:1">
      <path
         class="a"
         d="M419.66,509.073a5.4,5.4,0,0,1-2.109-2.029,5.831,5.831,0,0,1,0-5.784,5.418,5.418,0,0,1,2.109-2.031,6.524,6.524,0,0,1,6.022,0,5.4,5.4,0,0,1,2.1,2.021,5.926,5.926,0,0,1,0,5.8,5.374,5.374,0,0,1-2.1,2.021,6.524,6.524,0,0,1-6.022,0Zm5.208-1.224a4.045,4.045,0,0,0,1.532-1.525,4.486,4.486,0,0,0,0-4.347,4.046,4.046,0,0,0-1.532-1.524,4.347,4.347,0,0,0-2.188-.553,4.429,4.429,0,0,0-2.205.553,4.036,4.036,0,0,0-1.549,1.524,4.486,4.486,0,0,0,0,4.347,4.036,4.036,0,0,0,1.549,1.525,4.41,4.41,0,0,0,2.205.555A4.328,4.328,0,0,0,424.867,507.849Z"
         transform="translate(-416.783 -498.492)"
         id="path46"
         style="fill:#000000;fill-opacity:1" />
      <path
         class="a"
         d="M437.052,504.857a2.791,2.791,0,0,1,.554,1.779,2.561,2.561,0,0,1-1.083,2.213,5.382,5.382,0,0,1-3.153.775h-5.28V498.561h4.963a4.889,4.889,0,0,1,2.932.759,2.46,2.46,0,0,1,1.035,2.1,2.736,2.736,0,0,1-.4,1.5,2.646,2.646,0,0,1-1.083.964A2.83,2.83,0,0,1,437.052,504.857Zm-7.379-5.017v3.54h3.238a3.289,3.289,0,0,0,1.873-.451,1.655,1.655,0,0,0,0-2.639,3.288,3.288,0,0,0-1.873-.451Zm5.656,8.06a1.542,1.542,0,0,0,.681-1.391q0-1.85-2.7-1.849h-3.635v3.683h3.635A3.74,3.74,0,0,0,435.33,507.9Z"
         transform="translate(-407.119 -498.433)"
         id="path48"
         style="fill:#000000;fill-opacity:1" />
      <path
         class="a"
         d="M439.486,509.421a4.943,4.943,0,0,1-1.825-1l.584-1.231a4.863,4.863,0,0,0,1.621.924,5.941,5.941,0,0,0,2.031.356,3.656,3.656,0,0,0,2.055-.467,1.435,1.435,0,0,0,.679-1.241,1.226,1.226,0,0,0-.371-.924,2.475,2.475,0,0,0-.918-.545c-.363-.126-.875-.269-1.539-.427a15.947,15.947,0,0,1-2.016-.6,3.33,3.33,0,0,1-1.311-.925,2.468,2.468,0,0,1-.545-1.682,2.86,2.86,0,0,1,.465-1.6,3.2,3.2,0,0,1,1.415-1.137,5.717,5.717,0,0,1,2.355-.428,7.432,7.432,0,0,1,1.927.254,5.1,5.1,0,0,1,1.628.727l-.521,1.263a5.757,5.757,0,0,0-1.486-.669,5.507,5.507,0,0,0-1.548-.23,3.419,3.419,0,0,0-2.016.49,1.5,1.5,0,0,0-.671,1.265,1.211,1.211,0,0,0,.378.924,2.679,2.679,0,0,0,.94.555,14.934,14.934,0,0,0,1.526.419,15.174,15.174,0,0,1,2.007.6,3.37,3.37,0,0,1,1.3.918,2.408,2.408,0,0,1,.545,1.658,2.823,2.823,0,0,1-.473,1.587,3.18,3.18,0,0,1-1.439,1.139,5.935,5.935,0,0,1-2.37.419A7.541,7.541,0,0,1,439.486,509.421Z"
         transform="translate(-398.941 -498.492)"
         id="path50"
         style="fill:#000000;fill-opacity:1" />
      <path
         class="a"
         d="M450.01,499.935h-3.793v-1.374h9.151v1.374h-3.793v9.688H450.01Z"
         transform="translate(-391.629 -498.433)"
         id="path52"
         style="fill:#000000;fill-opacity:1" />
      <path
         class="a"
         d="M463.265,506.857h-5.879l-1.217,2.767h-1.627l5.009-11.063h1.563l5.026,11.063h-1.658Zm-.553-1.263-2.387-5.421-2.385,5.421Z"
         transform="translate(-384.513 -498.433)"
         id="path54"
         style="fill:#000000;fill-opacity:1" />
      <path
         class="a"
         d="M467.631,509.073a5.382,5.382,0,0,1-2.1-2.021,5.926,5.926,0,0,1,0-5.8,5.413,5.413,0,0,1,2.1-2.021,6.144,6.144,0,0,1,3-.736,6.28,6.28,0,0,1,2.37.436,4.876,4.876,0,0,1,1.834,1.287l-1.029,1A4.12,4.12,0,0,0,470.7,499.9a4.511,4.511,0,0,0-2.229.553,4.028,4.028,0,0,0-1.556,1.524,4.484,4.484,0,0,0,0,4.347,4.028,4.028,0,0,0,1.556,1.525,4.492,4.492,0,0,0,2.229.555,4.129,4.129,0,0,0,3.112-1.328l1.029,1a4.964,4.964,0,0,1-1.842,1.3,6.267,6.267,0,0,1-2.379.441A6.088,6.088,0,0,1,467.631,509.073Z"
         transform="translate(-375.767 -498.492)"
         id="path56"
         style="fill:#000000;fill-opacity:1" />
      <path
         class="a"
         d="M475.089,498.561h1.58v9.688h5.99v1.374h-7.571Z"
         transform="translate(-366.954 -498.433)"
         id="path58"
         style="fill:#000000;fill-opacity:1" />
      <path
         class="a"
         d="M491.844,508.25v1.374h-8.029V498.561h7.806v1.374H485.4v3.4h5.547v1.343H485.4v3.574Z"
         transform="translate(-359.497 -498.433)"
         id="path60"
         style="fill:#000000;fill-opacity:1" />
      <path
         class="a"
         d="M419.636,519.3a5.4,5.4,0,0,1-2.094-2.021,5.925,5.925,0,0,1,0-5.8,5.419,5.419,0,0,1,2.1-2.023,6.165,6.165,0,0,1,3-.734,6.277,6.277,0,0,1,2.37.434,4.881,4.881,0,0,1,1.834,1.289l-1.029,1a4.114,4.114,0,0,0-3.112-1.311,4.511,4.511,0,0,0-2.229.553,4.021,4.021,0,0,0-1.556,1.524,4.486,4.486,0,0,0,0,4.347,4.019,4.019,0,0,0,1.556,1.524,4.509,4.509,0,0,0,2.229.555,4.13,4.13,0,0,0,3.112-1.328l1.029.994a4.922,4.922,0,0,1-1.842,1.3,6.232,6.232,0,0,1-2.379.442A6.1,6.1,0,0,1,419.636,519.3Z"
         transform="translate(-416.783 -489.753)"
         id="path62"
         style="fill:#000000;fill-opacity:1" />
      <path
         class="a"
         d="M428.08,519.3a5.4,5.4,0,0,1-2.111-2.029,5.831,5.831,0,0,1,0-5.784,5.427,5.427,0,0,1,2.111-2.033,6.535,6.535,0,0,1,6.02,0,5.394,5.394,0,0,1,2.1,2.023,5.913,5.913,0,0,1,0,5.8,5.374,5.374,0,0,1-2.1,2.021,6.534,6.534,0,0,1-6.02,0Zm5.206-1.224a4.06,4.06,0,0,0,1.534-1.524,4.5,4.5,0,0,0,0-4.347,4.061,4.061,0,0,0-1.534-1.524,4.337,4.337,0,0,0-2.188-.553,4.434,4.434,0,0,0-2.205.553,4.037,4.037,0,0,0-1.549,1.524,4.5,4.5,0,0,0,0,4.347,4.035,4.035,0,0,0,1.549,1.524,4.432,4.432,0,0,0,2.205.555A4.335,4.335,0,0,0,433.286,518.074Z"
         transform="translate(-409.588 -489.753)"
         id="path64"
         style="fill:#000000;fill-opacity:1" />
      <path
         class="a"
         d="M436.414,518.711a5,5,0,0,1-1.232-3.635v-6.289h1.58v6.226q0,3.556,3.114,3.557a3,3,0,0,0,2.322-.879,3.847,3.847,0,0,0,.807-2.678v-6.226h1.534v6.289a4.988,4.988,0,0,1-1.233,3.642,5.344,5.344,0,0,1-6.892-.007Z"
         transform="translate(-401.059 -489.694)"
         id="path66"
         style="fill:#000000;fill-opacity:1" />
      <path
         class="a"
         d="M451.756,519.85l-2.387-3.4c-.295.021-.527.032-.7.032H445.94v3.366h-1.58V508.787h4.314a5.131,5.131,0,0,1,3.383,1.026,3.488,3.488,0,0,1,1.231,2.83,3.716,3.716,0,0,1-.631,2.181,3.575,3.575,0,0,1-1.8,1.311l2.624,3.715Zm-.838-5.358a2.257,2.257,0,0,0,.79-1.849,2.232,2.232,0,0,0-.79-1.842,3.569,3.569,0,0,0-2.292-.64H445.94v4.978h2.685A3.536,3.536,0,0,0,450.918,514.492Z"
         transform="translate(-393.216 -489.694)"
         id="path68"
         style="fill:#000000;fill-opacity:1" />
      <path
         class="a"
         d="M454.22,519.647a4.973,4.973,0,0,1-1.825-1l.584-1.233a4.822,4.822,0,0,0,1.621.923,5.94,5.94,0,0,0,2.031.356,3.651,3.651,0,0,0,2.055-.466,1.437,1.437,0,0,0,.679-1.241,1.215,1.215,0,0,0-.371-.924,2.49,2.49,0,0,0-.916-.547c-.364-.124-.877-.267-1.541-.425a16.242,16.242,0,0,1-2.016-.6,3.342,3.342,0,0,1-1.311-.925,2.467,2.467,0,0,1-.545-1.682,2.841,2.841,0,0,1,.467-1.6,3.189,3.189,0,0,1,1.413-1.137,5.724,5.724,0,0,1,2.355-.428,7.458,7.458,0,0,1,1.929.254,5.113,5.113,0,0,1,1.626.725l-.521,1.265a5.7,5.7,0,0,0-1.486-.671,5.562,5.562,0,0,0-1.548-.228,3.42,3.42,0,0,0-2.016.49,1.5,1.5,0,0,0-.669,1.263,1.206,1.206,0,0,0,.378.926,2.618,2.618,0,0,0,.94.553,14.307,14.307,0,0,0,1.524.419,15.363,15.363,0,0,1,2.007.6,3.393,3.393,0,0,1,1.306.916,2.417,2.417,0,0,1,.545,1.66,2.824,2.824,0,0,1-.475,1.588A3.169,3.169,0,0,1,459,519.616a5.926,5.926,0,0,1-2.37.417A7.594,7.594,0,0,1,454.22,519.647Z"
         transform="translate(-386.349 -489.753)"
         id="path70"
         style="fill:#000000;fill-opacity:1" />
      <path
         class="a"
         d="M468.647,518.474v1.376h-8.029V508.787h7.808v1.374H462.2v3.4h5.547V514.9H462.2v3.572Z"
         transform="translate(-379.321 -489.694)"
         id="path72"
         style="fill:#000000;fill-opacity:1" />
      <path
         class="a"
         d="M480.79,519.85l-2.387-3.4c-.295.021-.527.032-.7.032h-2.734v3.366h-1.582V508.787h4.316a5.135,5.135,0,0,1,3.383,1.026,3.488,3.488,0,0,1,1.231,2.83,3.716,3.716,0,0,1-.631,2.181,3.583,3.583,0,0,1-1.8,1.311l2.622,3.715Zm-.838-5.358a2.257,2.257,0,0,0,.79-1.849,2.232,2.232,0,0,0-.79-1.842,3.572,3.572,0,0,0-2.292-.64h-2.685v4.978h2.685A3.539,3.539,0,0,0,479.952,514.492Z"
         transform="translate(-368.405 -489.694)"
         id="path74"
         style="fill:#000000;fill-opacity:1" />
      <path
         class="a"
         d="M489.794,517.083h-5.879L482.7,519.85H481.07l5.011-11.063h1.563l5.026,11.063h-1.66Zm-.553-1.265-2.387-5.421-2.385,5.421Z"
         transform="translate(-361.843 -489.694)"
         id="path76"
         style="fill:#000000;fill-opacity:1" />
      <path
         class="a"
         d="M492.879,519.3a5.4,5.4,0,0,1-2.094-2.021,5.925,5.925,0,0,1,0-5.8,5.405,5.405,0,0,1,2.1-2.023,6.16,6.16,0,0,1,3-.734,6.284,6.284,0,0,1,2.37.434,4.858,4.858,0,0,1,1.832,1.289l-1.027,1a4.118,4.118,0,0,0-3.114-1.311,4.5,4.5,0,0,0-2.227.553,4.007,4.007,0,0,0-1.556,1.524,4.486,4.486,0,0,0,0,4.347,4.006,4.006,0,0,0,1.556,1.524,4.5,4.5,0,0,0,2.227.555,4.134,4.134,0,0,0,3.114-1.328l1.027.994a4.891,4.891,0,0,1-1.842,1.3,6.223,6.223,0,0,1-2.378.442A6.093,6.093,0,0,1,492.879,519.3Z"
         transform="translate(-354.188 -489.753)"
         id="path78"
         style="fill:#000000;fill-opacity:1" />
      <path
         class="a"
         d="M507.089,518.474v1.376H499.06V508.787h7.808v1.374H500.64v3.4h5.547V514.9H500.64v3.572Z"
         transform="translate(-346.469 -489.694)"
         id="path80"
         style="fill:#000000;fill-opacity:1" />
    </g>
  </g>
</svg>
